<svg id="visual" viewBox="0 0 900 600" width="900" height="600" xmlns="http://www.w3.org/2000/svg" xmlns:xlink="http://www.w3.org/1999/xlink" version="1.1"><path d="M0 49L21.5 49C43 49 86 49 128.8 47C171.7 45 214.3 41 257.2 36C300 31 343 25 385.8 22C428.7 19 471.3 19 514.2 23C557 27 600 35 642.8 37C685.7 39 728.3 35 771.2 31C814 27 857 23 878.5 21L900 19L900 0L878.5 0C857 0 814 0 771.2 0C728.3 0 685.7 0 642.8 0C600 0 557 0 514.2 0C471.3 0 428.7 0 385.8 0C343 0 300 0 257.2 0C214.3 0 171.7 0 128.8 0C86 0 43 0 21.5 0L0 0Z" fill="#c3f9d2"></path><path d="M0 109L21.5 103C43 97 86 85 128.8 79C171.7 73 214.3 73 257.2 76C300 79 343 85 385.8 80C428.7 75 471.3 59 514.2 62C557 65 600 87 642.8 93C685.7 99 728.3 89 771.2 82C814 75 857 71 878.5 69L900 67L900 17L878.5 19C857 21 814 25 771.2 29C728.3 33 685.7 37 642.8 35C600 33 557 25 514.2 21C471.3 17 428.7 17 385.8 20C343 23 300 29 257.2 34C214.3 39 171.7 43 128.8 45C86 47 43 47 21.5 47L0 47Z" fill="#b8f4c8"></path><path d="M0 133L21.5 128C43 123 86 113 128.8 106C171.7 99 214.3 95 257.2 98C300 101 343 111 385.8 110C428.7 109 471.3 97 514.2 99C557 101 600 117 642.8 119C685.7 121 728.3 109 771.2 107C814 105 857 113 878.5 117L900 121L900 65L878.5 67C857 69 814 73 771.2 80C728.3 87 685.7 97 642.8 91C600 85 557 63 514.2 60C471.3 57 428.7 73 385.8 78C343 83 300 77 257.2 74C214.3 71 171.7 71 128.8 77C86 83 43 95 21.5 101L0 107Z" fill="#adeebf"></path><path d="M0 199L21.5 193C43 187 86 175 128.8 167C171.7 159 214.3 155 257.2 169C300 183 343 215 385.8 221C428.7 227 471.3 207 514.2 200C557 193 600 199 642.8 195C685.7 191 728.3 177 771.2 175C814 173 857 183 878.5 188L900 193L900 119L878.5 115C857 111 814 103 771.2 105C728.3 107 685.7 119 642.8 117C600 115 557 99 514.2 97C471.3 95 428.7 107 385.8 108C343 109 300 99 257.2 96C214.3 93 171.7 97 128.8 104C86 111 43 121 21.5 126L0 131Z" fill="#a2e9b5"></path><path d="M0 265L21.5 270C43 275 86 285 128.8 291C171.7 297 214.3 299 257.2 301C300 303 343 305 385.8 318C428.7 331 471.3 355 514.2 356C557 357 600 335 642.8 312C685.7 289 728.3 265 771.2 257C814 249 857 257 878.5 261L900 265L900 191L878.5 186C857 181 814 171 771.2 173C728.3 175 685.7 189 642.8 193C600 197 557 191 514.2 198C471.3 205 428.7 225 385.8 219C343 213 300 181 257.2 167C214.3 153 171.7 157 128.8 165C86 173 43 185 21.5 191L0 197Z" fill="#97e3ab"></path><path d="M0 325L21.5 325C43 325 86 325 128.8 335C171.7 345 214.3 365 257.2 372C300 379 343 373 385.8 379C428.7 385 471.3 403 514.2 403C557 403 600 385 642.8 364C685.7 343 728.3 319 771.2 312C814 305 857 315 878.5 320L900 325L900 263L878.5 259C857 255 814 247 771.2 255C728.3 263 685.7 287 642.8 310C600 333 557 355 514.2 354C471.3 353 428.7 329 385.8 316C343 303 300 301 257.2 299C214.3 297 171.7 295 128.8 289C86 283 43 273 21.5 268L0 263Z" fill="#8cdda1"></path><path d="M0 379L21.5 380C43 381 86 383 128.8 395C171.7 407 214.3 429 257.2 433C300 437 343 423 385.8 427C428.7 431 471.3 453 514.2 453C557 453 600 431 642.8 412C685.7 393 728.3 377 771.2 368C814 359 857 357 878.5 356L900 355L900 323L878.5 318C857 313 814 303 771.2 310C728.3 317 685.7 341 642.8 362C600 383 557 401 514.2 401C471.3 401 428.7 383 385.8 377C343 371 300 377 257.2 370C214.3 363 171.7 343 128.8 333C86 323 43 323 21.5 323L0 323Z" fill="#80d898"></path><path d="M0 553L21.5 552C43 551 86 549 128.8 550C171.7 551 214.3 555 257.2 561C300 567 343 575 385.8 575C428.7 575 471.3 567 514.2 564C557 561 600 563 642.8 567C685.7 571 728.3 577 771.2 574C814 571 857 559 878.5 553L900 547L900 353L878.5 354C857 355 814 357 771.2 366C728.3 375 685.7 391 642.8 410C600 429 557 451 514.2 451C471.3 451 428.7 429 385.8 425C343 421 300 435 257.2 431C214.3 427 171.7 405 128.8 393C86 381 43 379 21.5 378L0 377Z" fill="#75d28e"></path><path d="M0 601L21.5 601C43 601 86 601 128.8 601C171.7 601 214.3 601 257.2 601C300 601 343 601 385.8 601C428.7 601 471.3 601 514.2 601C557 601 600 601 642.8 601C685.7 601 728.3 601 771.2 601C814 601 857 601 878.5 601L900 601L900 545L878.5 551C857 557 814 569 771.2 572C728.3 575 685.7 569 642.8 565C600 561 557 559 514.2 562C471.3 565 428.7 573 385.8 573C343 573 300 565 257.2 559C214.3 553 171.7 549 128.8 548C86 547 43 549 21.5 550L0 551Z" fill="#69cc85"></path></svg>