<svg id="visual" viewBox="0 0 960 540" width="960" height="540" xmlns="http://www.w3.org/2000/svg" xmlns:xlink="http://www.w3.org/1999/xlink" version="1.1"><path d="M0 82L12.3 85.7C24.7 89.3 49.3 96.7 74 98.5C98.7 100.3 123.3 96.7 148 93.8C172.7 91 197.3 89 221.8 87.2C246.3 85.3 270.7 83.7 295.2 78.3C319.7 73 344.3 64 369 63.2C393.7 62.3 418.3 69.7 443 75C467.7 80.3 492.3 83.7 517 81.8C541.7 80 566.3 73 591 69.5C615.7 66 640.3 66 664.8 63.3C689.3 60.7 713.7 55.3 738.2 58C762.7 60.7 787.3 71.3 812 72.2C836.7 73 861.3 64 886 58.7C910.7 53.3 935.3 51.7 947.7 50.8L960 50L960 0L947.7 0C935.3 0 910.7 0 886 0C861.3 0 836.7 0 812 0C787.3 0 762.7 0 738.2 0C713.7 0 689.3 0 664.8 0C640.3 0 615.7 0 591 0C566.3 0 541.7 0 517 0C492.3 0 467.7 0 443 0C418.3 0 393.7 0 369 0C344.3 0 319.7 0 295.2 0C270.7 0 246.3 0 221.8 0C197.3 0 172.7 0 148 0C123.3 0 98.7 0 74 0C49.3 0 24.7 0 12.3 0L0 0Z" fill="#59bf76"></path><path d="M0 104L12.3 109.3C24.7 114.7 49.3 125.3 74 130.7C98.7 136 123.3 136 148 132.3C172.7 128.7 197.3 121.3 221.8 116.8C246.3 112.3 270.7 110.7 295.2 105.3C319.7 100 344.3 91 369 93.7C393.7 96.3 418.3 110.7 443 119.7C467.7 128.7 492.3 132.3 517 127.8C541.7 123.3 566.3 110.7 591 107C615.7 103.3 640.3 108.7 664.8 107.8C689.3 107 713.7 100 738.2 101C762.7 102 787.3 111 812 111.8C836.7 112.7 861.3 105.3 886 97.2C910.7 89 935.3 80 947.7 75.5L960 71L960 48L947.7 48.8C935.3 49.7 910.7 51.3 886 56.7C861.3 62 836.7 71 812 70.2C787.3 69.3 762.7 58.7 738.2 56C713.7 53.3 689.3 58.7 664.8 61.3C640.3 64 615.7 64 591 67.5C566.3 71 541.7 78 517 79.8C492.3 81.7 467.7 78.3 443 73C418.3 67.7 393.7 60.3 369 61.2C344.3 62 319.7 71 295.2 76.3C270.7 81.7 246.3 83.3 221.8 85.2C197.3 87 172.7 89 148 91.8C123.3 94.7 98.7 98.3 74 96.5C49.3 94.7 24.7 87.3 12.3 83.7L0 80Z" fill="#6bc786"></path><path d="M0 195L12.3 208.5C24.7 222 49.3 249 74 259C98.7 269 123.3 262 148 260.3C172.7 258.7 197.3 262.3 221.8 258.7C246.3 255 270.7 244 295.2 234C319.7 224 344.3 215 369 215C393.7 215 418.3 224 443 226.7C467.7 229.3 492.3 225.7 517 215.8C541.7 206 566.3 190 591 187.3C615.7 184.7 640.3 195.3 664.8 207.8C689.3 220.3 713.7 234.7 738.2 248.2C762.7 261.7 787.3 274.3 812 263.7C836.7 253 861.3 219 886 206.5C910.7 194 935.3 203 947.7 207.5L960 212L960 69L947.7 73.5C935.3 78 910.7 87 886 95.2C861.3 103.3 836.7 110.7 812 109.8C787.3 109 762.7 100 738.2 99C713.7 98 689.3 105 664.8 105.8C640.3 106.7 615.7 101.3 591 105C566.3 108.7 541.7 121.3 517 125.8C492.3 130.3 467.7 126.7 443 117.7C418.3 108.7 393.7 94.3 369 91.7C344.3 89 319.7 98 295.2 103.3C270.7 108.7 246.3 110.3 221.8 114.8C197.3 119.3 172.7 126.7 148 130.3C123.3 134 98.7 134 74 128.7C49.3 123.3 24.7 112.7 12.3 107.3L0 102Z" fill="#7ccf95"></path><path d="M0 239L12.3 250.7C24.7 262.3 49.3 285.7 74 294.7C98.7 303.7 123.3 298.3 148 295.7C172.7 293 197.3 293 221.8 293C246.3 293 270.7 293 295.2 289.3C319.7 285.7 344.3 278.3 369 277.3C393.7 276.3 418.3 281.7 443 279C467.7 276.3 492.3 265.7 517 255.8C541.7 246 566.3 237 591 237.8C615.7 238.7 640.3 249.3 664.8 260.2C689.3 271 713.7 282 738.2 295.5C762.7 309 787.3 325 812 316.8C836.7 308.7 861.3 276.3 886 262.8C910.7 249.3 935.3 254.7 947.7 257.3L960 260L960 210L947.7 205.5C935.3 201 910.7 192 886 204.5C861.3 217 836.7 251 812 261.7C787.3 272.3 762.7 259.7 738.2 246.2C713.7 232.7 689.3 218.3 664.8 205.8C640.3 193.3 615.7 182.7 591 185.3C566.3 188 541.7 204 517 213.8C492.3 223.7 467.7 227.3 443 224.7C418.3 222 393.7 213 369 213C344.3 213 319.7 222 295.2 232C270.7 242 246.3 253 221.8 256.7C197.3 260.3 172.7 256.7 148 258.3C123.3 260 98.7 267 74 257C49.3 247 24.7 220 12.3 206.5L0 193Z" fill="#8dd6a5"></path><path d="M0 271L12.3 283.7C24.7 296.3 49.3 321.7 74 328.8C98.7 336 123.3 325 148 321.3C172.7 317.7 197.3 321.3 221.8 323.2C246.3 325 270.7 325 295.2 319.7C319.7 314.3 344.3 303.7 369 300C393.7 296.3 418.3 299.7 443 296.8C467.7 294 492.3 285 517 277.8C541.7 270.7 566.3 265.3 591 266.3C615.7 267.3 640.3 274.7 664.8 286.3C689.3 298 713.7 314 738.2 326.5C762.7 339 787.3 348 812 339C836.7 330 861.3 303 886 291.3C910.7 279.7 935.3 283.3 947.7 285.2L960 287L960 258L947.7 255.3C935.3 252.7 910.7 247.3 886 260.8C861.3 274.3 836.7 306.7 812 314.8C787.3 323 762.7 307 738.2 293.5C713.7 280 689.3 269 664.8 258.2C640.3 247.3 615.7 236.7 591 235.8C566.3 235 541.7 244 517 253.8C492.3 263.7 467.7 274.3 443 277C418.3 279.7 393.7 274.3 369 275.3C344.3 276.3 319.7 283.7 295.2 287.3C270.7 291 246.3 291 221.8 291C197.3 291 172.7 291 148 293.7C123.3 296.3 98.7 301.7 74 292.7C49.3 283.7 24.7 260.3 12.3 248.7L0 237Z" fill="#9edeb4"></path><path d="M0 330L12.3 339C24.7 348 49.3 366 74 373.3C98.7 380.7 123.3 377.3 148 372.8C172.7 368.3 197.3 362.7 221.8 365.3C246.3 368 270.7 379 295.2 377.3C319.7 375.7 344.3 361.3 369 355C393.7 348.7 418.3 350.3 443 344.8C467.7 339.3 492.3 326.7 517 319.5C541.7 312.3 566.3 310.7 591 313.3C615.7 316 640.3 323 664.8 336.5C689.3 350 713.7 370 738.2 380C762.7 390 787.3 390 812 380C836.7 370 861.3 350 886 342.8C910.7 335.7 935.3 341.3 947.7 344.2L960 347L960 285L947.7 283.2C935.3 281.3 910.7 277.7 886 289.3C861.3 301 836.7 328 812 337C787.3 346 762.7 337 738.2 324.5C713.7 312 689.3 296 664.8 284.3C640.3 272.7 615.7 265.3 591 264.3C566.3 263.3 541.7 268.7 517 275.8C492.3 283 467.7 292 443 294.8C418.3 297.7 393.7 294.3 369 298C344.3 301.7 319.7 312.3 295.2 317.7C270.7 323 246.3 323 221.8 321.2C197.3 319.3 172.7 315.7 148 319.3C123.3 323 98.7 334 74 326.8C49.3 319.7 24.7 294.3 12.3 281.7L0 269Z" fill="#afe5c3"></path><path d="M0 487L12.3 487C24.7 487 49.3 487 74 479.8C98.7 472.7 123.3 458.3 148 453.8C172.7 449.3 197.3 454.7 221.8 458.2C246.3 461.7 270.7 463.3 295.2 464.2C319.7 465 344.3 465 369 469.5C393.7 474 418.3 483 443 484.8C467.7 486.7 492.3 481.3 517 476.8C541.7 472.3 566.3 468.7 591 466.8C615.7 465 640.3 465 664.8 466.8C689.3 468.7 713.7 472.3 738.2 475.2C762.7 478 787.3 480 812 479.2C836.7 478.3 861.3 474.7 886 474.7C910.7 474.7 935.3 478.3 947.7 480.2L960 482L960 345L947.7 342.2C935.3 339.3 910.7 333.7 886 340.8C861.3 348 836.7 368 812 378C787.3 388 762.7 388 738.2 378C713.7 368 689.3 348 664.8 334.5C640.3 321 615.7 314 591 311.3C566.3 308.7 541.7 310.3 517 317.5C492.3 324.7 467.7 337.3 443 342.8C418.3 348.3 393.7 346.7 369 353C344.3 359.3 319.7 373.7 295.2 375.3C270.7 377 246.3 366 221.8 363.3C197.3 360.7 172.7 366.3 148 370.8C123.3 375.3 98.7 378.7 74 371.3C49.3 364 24.7 346 12.3 337L0 328Z" fill="#c1edd1"></path><path d="M0 519L12.3 519C24.7 519 49.3 519 74 515.5C98.7 512 123.3 505 148 502.3C172.7 499.7 197.3 501.3 221.8 502.2C246.3 503 270.7 503 295.2 502.2C319.7 501.3 344.3 499.7 369 501.5C393.7 503.3 418.3 508.7 443 510.5C467.7 512.3 492.3 510.7 517 511.5C541.7 512.3 566.3 515.7 591 516.5C615.7 517.3 640.3 515.7 664.8 515.7C689.3 515.7 713.7 517.3 738.2 518.2C762.7 519 787.3 519 812 519C836.7 519 861.3 519 886 518.2C910.7 517.3 935.3 515.7 947.7 514.8L960 514L960 480L947.7 478.2C935.3 476.3 910.7 472.7 886 472.7C861.3 472.7 836.7 476.3 812 477.2C787.3 478 762.7 476 738.2 473.2C713.7 470.3 689.3 466.7 664.8 464.8C640.3 463 615.7 463 591 464.8C566.3 466.7 541.7 470.3 517 474.8C492.3 479.3 467.7 484.7 443 482.8C418.3 481 393.7 472 369 467.5C344.3 463 319.7 463 295.2 462.2C270.7 461.3 246.3 459.7 221.8 456.2C197.3 452.7 172.7 447.3 148 451.8C123.3 456.3 98.7 470.7 74 477.8C49.3 485 24.7 485 12.3 485L0 485Z" fill="#d3f4e0"></path><path d="M0 541L12.3 541C24.7 541 49.3 541 74 541C98.7 541 123.3 541 148 541C172.7 541 197.3 541 221.8 541C246.3 541 270.7 541 295.2 541C319.7 541 344.3 541 369 541C393.7 541 418.3 541 443 541C467.7 541 492.3 541 517 541C541.7 541 566.3 541 591 541C615.7 541 640.3 541 664.8 541C689.3 541 713.7 541 738.2 541C762.7 541 787.3 541 812 541C836.7 541 861.3 541 886 541C910.7 541 935.3 541 947.7 541L960 541L960 512L947.7 512.8C935.3 513.7 910.7 515.3 886 516.2C861.3 517 836.7 517 812 517C787.3 517 762.7 517 738.2 516.2C713.7 515.3 689.3 513.7 664.8 513.7C640.3 513.7 615.7 515.3 591 514.5C566.3 513.7 541.7 510.3 517 509.5C492.3 508.7 467.7 510.3 443 508.5C418.3 506.7 393.7 501.3 369 499.5C344.3 497.7 319.7 499.3 295.2 500.2C270.7 501 246.3 501 221.8 500.2C197.3 499.3 172.7 497.7 148 500.3C123.3 503 98.7 510 74 513.5C49.3 517 24.7 517 12.3 517L0 517Z" fill="#e5fbee"></path></svg>