<svg id="visual" viewBox="0 0 900 600" width="900" height="600" xmlns="http://www.w3.org/2000/svg" xmlns:xlink="http://www.w3.org/1999/xlink" version="1.1"><path d="M0 91L11.5 95C23 99 46 107 69 109C92 111 115 107 138.2 104C161.3 101 184.7 99 207.8 97C231 95 254 93 277 87C300 81 323 71 346 70C369 69 392 77 415.2 83C438.3 89 461.7 93 484.8 91C508 89 531 81 554 77C577 73 600 73 623 70C646 67 669 61 692.2 64C715.3 67 738.7 79 761.8 80C785 81 808 71 831 65C854 59 877 57 888.5 56L900 55L900 0L888.5 0C877 0 854 0 831 0C808 0 785 0 761.8 0C738.7 0 715.3 0 692.2 0C669 0 646 0 623 0C600 0 577 0 554 0C531 0 508 0 484.8 0C461.7 0 438.3 0 415.2 0C392 0 369 0 346 0C323 0 300 0 277 0C254 0 231 0 207.8 0C184.7 0 161.3 0 138.2 0C115 0 92 0 69 0C46 0 23 0 11.5 0L0 0Z" fill="#0f3827"></path><path d="M0 115L11.5 121C23 127 46 139 69 145C92 151 115 151 138.2 147C161.3 143 184.7 135 207.8 130C231 125 254 123 277 117C300 111 323 101 346 104C369 107 392 123 415.2 133C438.3 143 461.7 147 484.8 142C508 137 531 123 554 119C577 115 600 121 623 120C646 119 669 111 692.2 112C715.3 113 738.7 123 761.8 124C785 125 808 117 831 108C854 99 877 89 888.5 84L900 79L900 53L888.5 54C877 55 854 57 831 63C808 69 785 79 761.8 78C738.7 77 715.3 65 692.2 62C669 59 646 65 623 68C600 71 577 71 554 75C531 79 508 87 484.8 89C461.7 91 438.3 87 415.2 81C392 75 369 67 346 68C323 69 300 79 277 85C254 91 231 93 207.8 95C184.7 97 161.3 99 138.2 102C115 105 92 109 69 107C46 105 23 97 11.5 93L0 89Z" fill="#12412d"></path><path d="M0 217L11.5 232C23 247 46 277 69 288C92 299 115 291 138.2 289C161.3 287 184.7 291 207.8 287C231 283 254 271 277 260C300 249 323 239 346 239C369 239 392 249 415.2 252C438.3 255 461.7 251 484.8 240C508 229 531 211 554 208C577 205 600 217 623 231C646 245 669 261 692.2 276C715.3 291 738.7 305 761.8 293C785 281 808 243 831 229C854 215 877 225 888.5 230L900 235L900 77L888.5 82C877 87 854 97 831 106C808 115 785 123 761.8 122C738.7 121 715.3 111 692.2 110C669 109 646 117 623 118C600 119 577 113 554 117C531 121 508 135 484.8 140C461.7 145 438.3 141 415.2 131C392 121 369 105 346 102C323 99 300 109 277 115C254 121 231 123 207.8 128C184.7 133 161.3 141 138.2 145C115 149 92 149 69 143C46 137 23 125 11.5 119L0 113Z" fill="#154932"></path><path d="M0 265L11.5 278C23 291 46 317 69 327C92 337 115 331 138.2 328C161.3 325 184.7 325 207.8 325C231 325 254 325 277 321C300 317 323 309 346 308C369 307 392 313 415.2 310C438.3 307 461.7 295 484.8 284C508 273 531 263 554 264C577 265 600 277 623 289C646 301 669 313 692.2 328C715.3 343 738.7 361 761.8 352C785 343 808 307 831 292C854 277 877 283 888.5 286L900 289L900 233L888.5 228C877 223 854 213 831 227C808 241 785 279 761.8 291C738.7 303 715.3 289 692.2 274C669 259 646 243 623 229C600 215 577 203 554 206C531 209 508 227 484.8 238C461.7 249 438.3 253 415.2 250C392 247 369 237 346 237C323 237 300 247 277 258C254 269 231 281 207.8 285C184.7 289 161.3 285 138.2 287C115 289 92 297 69 286C46 275 23 245 11.5 230L0 215Z" fill="#195238"></path><path d="M0 301L11.5 315C23 329 46 357 69 365C92 373 115 361 138.2 357C161.3 353 184.7 357 207.8 359C231 361 254 361 277 355C300 349 323 337 346 333C369 329 392 333 415.2 330C438.3 327 461.7 317 484.8 309C508 301 531 295 554 296C577 297 600 305 623 318C646 331 669 349 692.2 363C715.3 377 738.7 387 761.8 377C785 367 808 337 831 324C854 311 877 315 888.5 317L900 319L900 287L888.5 284C877 281 854 275 831 290C808 305 785 341 761.8 350C738.7 359 715.3 341 692.2 326C669 311 646 299 623 287C600 275 577 263 554 262C531 261 508 271 484.8 282C461.7 293 438.3 305 415.2 308C392 311 369 305 346 306C323 307 300 315 277 319C254 323 231 323 207.8 323C184.7 323 161.3 323 138.2 326C115 329 92 335 69 325C46 315 23 289 11.5 276L0 263Z" fill="#1d5b3d"></path><path d="M0 367L11.5 377C23 387 46 407 69 415C92 423 115 419 138.2 414C161.3 409 184.7 403 207.8 406C231 409 254 421 277 419C300 417 323 401 346 394C369 387 392 389 415.2 383C438.3 377 461.7 363 484.8 355C508 347 531 345 554 348C577 351 600 359 623 374C646 389 669 411 692.2 422C715.3 433 738.7 433 761.8 422C785 411 808 389 831 381C854 373 877 379 888.5 382L900 385L900 317L888.5 315C877 313 854 309 831 322C808 335 785 365 761.8 375C738.7 385 715.3 375 692.2 361C669 347 646 329 623 316C600 303 577 295 554 294C531 293 508 299 484.8 307C461.7 315 438.3 325 415.2 328C392 331 369 327 346 331C323 335 300 347 277 353C254 359 231 359 207.8 357C184.7 355 161.3 351 138.2 355C115 359 92 371 69 363C46 355 23 327 11.5 313L0 299Z" fill="#216442"></path><path d="M0 541L11.5 541C23 541 46 541 69 533C92 525 115 509 138.2 504C161.3 499 184.7 505 207.8 509C231 513 254 515 277 516C300 517 323 517 346 522C369 527 392 537 415.2 539C438.3 541 461.7 535 484.8 530C508 525 531 521 554 519C577 517 600 517 623 519C646 521 669 525 692.2 528C715.3 531 738.7 533 761.8 532C785 531 808 527 831 527C854 527 877 531 888.5 533L900 535L900 383L888.5 380C877 377 854 371 831 379C808 387 785 409 761.8 420C738.7 431 715.3 431 692.2 420C669 409 646 387 623 372C600 357 577 349 554 346C531 343 508 345 484.8 353C461.7 361 438.3 375 415.2 381C392 387 369 385 346 392C323 399 300 415 277 417C254 419 231 407 207.8 404C184.7 401 161.3 407 138.2 412C115 417 92 421 69 413C46 405 23 385 11.5 375L0 365Z" fill="#266e48"></path><path d="M0 577L11.5 577C23 577 46 577 69 573C92 569 115 561 138.2 558C161.3 555 184.7 557 207.8 558C231 559 254 559 277 558C300 557 323 555 346 557C369 559 392 565 415.2 567C438.3 569 461.7 567 484.8 568C508 569 531 573 554 574C577 575 600 573 623 573C646 573 669 575 692.2 576C715.3 577 738.7 577 761.8 577C785 577 808 577 831 576C854 575 877 573 888.5 572L900 571L900 533L888.5 531C877 529 854 525 831 525C808 525 785 529 761.8 530C738.7 531 715.3 529 692.2 526C669 523 646 519 623 517C600 515 577 515 554 517C531 519 508 523 484.8 528C461.7 533 438.3 539 415.2 537C392 535 369 525 346 520C323 515 300 515 277 514C254 513 231 511 207.8 507C184.7 503 161.3 497 138.2 502C115 507 92 523 69 531C46 539 23 539 11.5 539L0 539Z" fill="#2b774d"></path><path d="M0 601L11.5 601C23 601 46 601 69 601C92 601 115 601 138.2 601C161.3 601 184.7 601 207.8 601C231 601 254 601 277 601C300 601 323 601 346 601C369 601 392 601 415.2 601C438.3 601 461.7 601 484.8 601C508 601 531 601 554 601C577 601 600 601 623 601C646 601 669 601 692.2 601C715.3 601 738.7 601 761.8 601C785 601 808 601 831 601C854 601 877 601 888.5 601L900 601L900 569L888.5 570C877 571 854 573 831 574C808 575 785 575 761.8 575C738.7 575 715.3 575 692.2 574C669 573 646 571 623 571C600 571 577 573 554 572C531 571 508 567 484.8 566C461.7 565 438.3 567 415.2 565C392 563 369 557 346 555C323 553 300 555 277 556C254 557 231 557 207.8 556C184.7 555 161.3 553 138.2 556C115 559 92 567 69 571C46 575 23 575 11.5 575L0 575Z" fill="#308152"></path></svg>